# xmcd
#
# Track frame offsets:
#       150
#       10770
#       34340
#       49655
#       66515
#       85980
#       108705
#       126235
#       145462
#       183010
#
# Disc length: 2701 seconds
#
# Revision: 1
# Processed by: cddbd v1.5.1PL0 Copyright (c) Steve Scherf et al.
# Submitted via: CD-DA_X-Tractor v0.24
#
DISCID=8e0a8b0a
DTITLE=Nick Charles - Grace Notes
DYEAR=2001
DGENRE=Blues
TTITLE0=East Coast Blues
TTITLE1=Everybody Sleeps But Me
TTITLE2=Walkin' The Blues Away
TTITLE3=Arabella
TTITLE4=The Old Link Road
TTITLE5=Kenny's Blues
TTITLE6=Rule Of Thumb
TTITLE7=Spanish Harlem
TTITLE8=Sometimes The Way Is Clear
TTITLE9=Killarney
EXTD=
EXTT0=
EXTT1=
EXTT2=
EXTT3=
EXTT4=
EXTT5=
EXTT6=
EXTT7=
EXTT8=
EXTT9=
PLAYORDER=
